<?xml version="1.0" encoding="utf-8"?>
<!-- Generator: Adobe Illustrator 23.0.0, SVG Export Plug-In . SVG Version: 6.00 Build 0)  -->
<svg version="1.1" id="Layer_1" xmlns="http://www.w3.org/2000/svg" xmlns:xlink="http://www.w3.org/1999/xlink" x="0px" y="0px"
	 viewBox="0 0 500 500" style="enable-background:new 0 0 500 500;" xml:space="preserve">
<style type="text/css">
	.st0{opacity:0.5;fill:#EBEBEB;enable-background:new    ;}
	.st1{fill:#E0E0E0;}
	.st2{fill:#2563EB;}
	.st3{opacity:0.1;enable-background:new    ;}
	.st4{fill:#FFFFFF;}
	.st5{fill:#F0F0F0;}
	.st6{fill:#E6E6E6;}
	.st7{fill:#FAFAFA;}
	.st8{opacity:0.2;enable-background:new    ;}
	.st9{opacity:0.4;fill:#FFFFFF;enable-background:new    ;}
	.st10{fill:#EBEBEB;}
	.st11{fill:#F5F5F5;}
	.st12{fill:#455A64;}
	.st13{fill:#37474F;}
	.st14{fill:#FFA8A7;}
	.st15{fill:#263238;}
	.st16{fill:#F28F8F;}
</style>
<g id="Floor">
	<path id="SUELO" class="st0" d="M124.4,411.3c80.1,38.2,209.9,38.2,289.9,0c80.1-38.2,80.1-100,0-138.2
		c-80.1-38.2-209.9-38.2-289.9,0C44.3,311.3,44.3,373.2,124.4,411.3z"/>
</g>
<g id="Shadows">
	<path id="Shadow" class="st1" d="M423,332.2c-21.6,10.3-56.6,10.3-78.2,0c-21.6-10.3-21.6-27,0-37.3c21.6-10.3,56.6-10.3,78.2,0
		C444.6,305.2,444.6,321.9,423,332.2z"/>
	<path id="Shadow_1_" class="st1" d="M300.2,418.6c-14.8,7-38.7,7-53.5,0c-14.8-7-14.8-18.5,0-25.5c14.8-7,38.7-7,53.5,0
		C315,400.1,315,411.5,300.2,418.6z"/>
</g>
<g id="Plants_1_">
	<g id="Plants">
		<g id="XMLID_402_">
			<path id="XMLID_400_" class="st2" d="M101.4,328.6l8.1-4.7c0,0,4.3-19.1-2.1-43.4C101,256.2,82.6,238,73,241.8
				c-9.6,3.8-9.4,11-4.1,18.3c4.4,6.1,18.7,20.6,25.5,37.4C101.3,314.3,101.4,328.6,101.4,328.6z"/>
			<path id="XMLID_401_" class="st3" d="M101.4,328.6l8.1-4.7c0,0,4.3-19.1-2.1-43.4C101,256.2,82.6,238,73,241.8
				c-9.6,3.8-9.4,11-4.1,18.3c4.4,6.1,18.7,20.6,25.5,37.4C101.3,314.3,101.4,328.6,101.4,328.6z"/>
			<g id="XMLID_403_">
				<path id="XMLID_659_" class="st4" d="M105.7,326.6C105.7,326.6,105.7,326.6,105.7,326.6c-0.3,0-0.5-0.3-0.5-0.6
					c5.6-40-19.2-72.3-30.5-79.1c-0.2-0.1-0.3-0.4-0.2-0.7c0.1-0.2,0.4-0.3,0.7-0.2c11.4,6.8,36.6,39.6,31,80.1
					C106.2,326.4,106,326.6,105.7,326.6z"/>
			</g>
		</g>
		<g id="XMLID_398_">
			<path id="XMLID_245_" class="st2" d="M101.4,328.6l-12.2,7c0,0-2.9-1.7-8.1-2.3c-5.2-0.6-8.6-5.6-8.1-9.4
				c0.3-2.5,1.1-5.4,0.8-7.9c-0.3-2.3-2.6-4.3-4.6-5.1c-1.7-0.7-3.6-0.7-5.4-0.8c-2.9-0.1-6-0.5-8.5-2s-4.3-4.6-3.5-7.4
				c0.4-1.5,1.5-2.7,2.5-3.9s2.2-2.3,2.7-3.8c1.1-2.8-0.8-4.6-3.1-5.9c-8-4.6-11.6-8.2-8.7-11.7s10.8-5,18.9-0.7s14.8-0.3,20.2,0.6
				c8.4,1.4,8.9,7.3,7.8,12.5c-1,5.1,9.3,7.3,11.9,13.5C105.9,305.6,107.5,320.4,101.4,328.6z"/>
			<g id="XMLID_399_">
				<path id="XMLID_658_" class="st4" d="M97.3,331.4c-0.3,0-0.5-0.2-0.5-0.5c-1-28.6-37.6-53.5-46.2-54.9c-0.3,0-0.5-0.3-0.4-0.6
					c0-0.3,0.3-0.5,0.6-0.4c9.1,1.5,46.1,26.2,47.1,55.8C97.8,331.2,97.6,331.4,97.3,331.4C97.4,331.4,97.3,331.4,97.3,331.4z"/>
			</g>
		</g>
		<g id="XMLID_471_">
			<g id="XMLID_521_">
				<path id="XMLID_524_" class="st2" d="M254.3,383c-0.4-5-4.3-13.5-10-19.6c-5.7-6.1-14.9-9-20.5-6.6c-5.3,2.3-4.1,9.3,2.8,13.5
					s17.3,9.3,20.8,17.2l6.8,9.5L254.3,383L254.3,383z"/>
				<path id="XMLID_540_" class="st3" d="M254.3,383c-0.4-5-4.3-13.5-10-19.6c-5.7-6.1-14.9-9-20.5-6.6c-5.3,2.3-4.1,9.3,2.8,13.5
					s17.3,9.3,20.8,17.2l6.8,9.5L254.3,383L254.3,383z"/>
				<g id="XMLID_522_">
					<path id="XMLID_523_" class="st4" d="M254.3,392.2C254.3,392.2,254.3,392.2,254.3,392.2c0.5-0.1,0.7-0.4,0.7-0.8
						c-2.5-18.5-21.3-31.4-28.8-32.8c-0.4-0.1-0.7,0.2-0.8,0.5c-0.1,0.4,0.2,0.7,0.5,0.8c7,1.3,25.3,14.1,27.7,31.7
						C253.6,391.9,253.9,392.2,254.3,392.2z"/>
				</g>
			</g>
			<g id="XMLID_517_">
				<path id="XMLID_520_" class="st2" d="M253.5,403.7c-1-2.7-4.8-7.1-10.7-10.5c-6.5-3.7-14.4-5.1-16.5-8.2
					c-2.5-3.8,0.6-7.8,6.9-7.5c6.4,0.3,18.2,8,21,20.8L253.5,403.7z"/>
				<g id="XMLID_518_">
					<path id="XMLID_519_" class="st4" d="M254,401c0,0,0.1,0,0.1,0c0.4-0.1,0.6-0.4,0.5-0.8c-1.9-9.5-15.7-19.3-24.6-19.8
						c-0.3,0-0.7,0.3-0.7,0.7c0,0.4,0.3,0.7,0.7,0.7c8.3,0.4,21.5,9.8,23.3,18.6C253.4,400.8,253.6,401,254,401z"/>
				</g>
			</g>
		</g>
	</g>
</g>
<g id="Calendar_1_">
	<g id="Calendar">
		<g id="XMLID_23_">
			<path id="XMLID_14614_" class="st5" d="M92.7,336c-1.1-0.6-1.8-2.3-1.5-3.6l35.5-156.9c0.3-1.3,1.5-3,2.7-3.7l211-121.8
				c1.2-0.7,3.1-0.7,4.2-0.1s1.8,2.3,1.5,3.6l-35.5,156.9c-0.3,1.3-1.5,3-2.7,3.7l-211,121.8C95.7,336.6,93.8,336.6,92.7,336z"/>
			<path id="XMLID_14612_" class="st6" d="M130.7,177.8L95.2,334.7c-0.3,1.3,0.4,1.9,1.6,1.2l211-121.8c1.2-0.7,2.4-2.3,2.7-3.7
				L346,53.5c0.3-1.3-0.4-1.9-1.6-1.2l-211,121.8C132.2,174.8,131,176.4,130.7,177.8z"/>
			<path id="XMLID_14613_" class="st5" d="M348.6,52.2c-1.1-0.6-3-0.6-4.2,0.1l-211,121.8c-1.2,0.7-2,2.4-1.8,3.7l27.7,194.4
				c0.2,1.4,1.3,3,2.4,3.6c1.1,0.6,3,0.6,4.2-0.1l211-121.8c1.2-0.7,2-2.4,1.8-3.7L351,55.9C350.8,54.5,349.7,52.9,348.6,52.2z"/>
			<path id="XMLID_14611_" class="st7" d="M135.7,180.2l27.7,194.4c0.2,1.4,1.3,1.9,2.5,1.2l211-121.8c1.2-0.7,2-2.4,1.8-3.7
				L351,55.9c-0.2-1.4-1.3-1.9-2.5-1.2l-211,121.8C136.3,177.1,135.5,178.8,135.7,180.2z"/>
			<path id="XMLID_14618_" class="st1" d="M95.4,333.9l54-31.2L151,314l-24.8,14.3c0,0-6.6,2.3-9.2,3
				C114.4,332,95.4,333.9,95.4,333.9z"/>
			<polygon id="XMLID_14619_" class="st6" points="151,314 159.1,370.8 126.3,328.3 			"/>
			<path id="XMLID_14615_" class="st1" d="M158.2,372.7l-29.4-38.3c-0.8-1.1-2.6-1.8-4-1.6l-27.5,4c-1.4,0.2-3.4-0.2-4.5-0.8
				c-1.1-0.6-0.9-1.4,0.4-1.6l31.6-6.1c1.4-0.3,3.1,0.4,3.9,1.5l33.6,45.2c0.8,1.1,0.6,1.5-0.5,0.8
				C160.6,375.2,159,373.8,158.2,372.7z"/>
		</g>
		<g id="XMLID_6_">
			<path id="XMLID_29_" class="st2" d="M346.1,52.7c0-1.1-0.6-2.3-1.5-2.8c-1.1-0.6-3-0.6-4.2,0.1l-211,121.8
				c-0.6,0.3-1.2,0.9-1.7,1.5c-0.5,0.7-0.9,1.5-1.1,2.1l-5,22.2l4.1,2.3L341,75.6l5-22.2C346.1,53.2,346,52.9,346.1,52.7L346.1,52.7
				z"/>
			<path id="XMLID_12_" class="st8" d="M346,53.5c0.3-1.3-0.4-1.9-1.6-1.2l-211,121.8c-1.2,0.7-2.4,2.3-2.7,3.7l-5,22.2L341,75.6
				L346,53.5z"/>
			<path id="XMLID_31_" class="st3" d="M131.8,175.6c-0.5,0.7-0.9,1.4-1.1,2.1l-5,22.2l-4.1-2.3l5-22.2c0.2-0.7,0.6-1.5,1.1-2.1
				L131.8,175.6z"/>
			<path id="XMLID_34_" class="st9" d="M346,52.7c-0.1-0.8-0.8-1-1.7-0.4l-211,121.8c-0.6,0.3-1.2,0.9-1.6,1.6l-4.1-2.4
				c0.5-0.6,1.1-1.2,1.6-1.5l211-121.8c1.2-0.7,3.1-0.7,4.2-0.1C345.4,50.4,346,51.6,346,52.7z"/>
		</g>
		<g id="XMLID_21_">
			<path id="XMLID_24_" class="st2" d="M351.2,57.7L351.2,57.7l-0.3-1.9c0-0.1,0-0.2-0.1-0.3c0,0,0-0.1,0-0.1c0,0,0,0,0,0
				c-0.3-1.3-1.3-2.7-2.3-3.3c-1.1-0.6-3-0.6-4.2,0.1l-211,121.8c-0.6,0.4-1.1,1-1.4,1.7l0,0c-0.3,0.7-0.4,1.4-0.4,2.1l4,27.9
				l4.1,2.4L354.9,83.7L351.2,57.7z"/>
			<path id="XMLID_30_" class="st3" d="M139.6,208l-4.1-2.4l-4-27.9c-0.1-0.7,0.1-1.4,0.4-2.1l4.1,2.3c-0.3,0.7-0.5,1.4-0.4,2.1
				L139.6,208z"/>
			<path id="XMLID_27_" class="st9" d="M350.9,55.5c-0.3-1.1-1.4-1.5-2.4-0.9l-211,121.8c-0.6,0.4-1.1,1-1.4,1.7l-4.1-2.3
				c0.3-0.7,0.8-1.3,1.4-1.7l211-121.8c1.2-0.7,3.1-0.7,4.2-0.1C349.6,52.8,350.6,54.2,350.9,55.5z"/>
		</g>
		<g id="XMLID_246_">
			<g id="XMLID_458_">
				<path id="XMLID_465_" class="st2" d="M195.7,342.3l-2.5-17.7c-0.2-1.1-1.1-1.5-2-1l-18.4,10.6c-1,0.6-1.6,1.9-1.4,3l2.5,17.7
					c0.2,1.1,1.1,1.5,2,1l18.4-10.6C195.2,344.8,195.8,343.4,195.7,342.3z"/>
				<path id="XMLID_464_" class="st10" d="M224.1,325.9l-2.5-17.7c-0.2-1.1-1.1-1.5-2-1l-18.4,10.6c-1,0.6-1.6,1.9-1.4,3l2.5,17.7
					c0.2,1.1,1.1,1.5,2,1l18.4-10.6C223.6,328.4,224.2,327,224.1,325.9z"/>
				<path id="XMLID_463_" class="st10" d="M252.5,309.5l-2.5-17.7c-0.2-1.1-1.1-1.5-2-1l-18.4,10.6c-1,0.6-1.6,1.9-1.4,3l2.5,17.7
					c0.2,1.1,1.1,1.5,2,1l18.4-10.6C252,312,252.7,310.6,252.5,309.5z"/>
				<path id="XMLID_462_" class="st10" d="M281,293.1l-2.5-17.7c-0.2-1.1-1.1-1.5-2-1L258,285.1c-1,0.6-1.6,1.9-1.5,3l2.5,17.7
					c0.2,1.1,1.1,1.5,2,1l18.4-10.6C280.5,295.6,281.1,294.2,281,293.1z"/>
				<path id="XMLID_461_" class="st10" d="M309.4,276.7l-2.5-17.7c-0.2-1.1-1.1-1.5-2-1l-18.4,10.6c-1,0.6-1.6,1.9-1.5,3l2.5,17.7
					c0.2,1.1,1.1,1.5,2,1l18.4-10.6C308.9,279.2,309.6,277.8,309.4,276.7z"/>
				<path id="XMLID_460_" class="st10" d="M337.9,260.3l-2.5-17.7c-0.2-1.1-1.1-1.5-2-1l-18.4,10.6c-1,0.6-1.6,1.9-1.5,3L316,273
					c0.2,1.1,1.1,1.5,2,1l18.4-10.6C337.4,262.8,338,261.4,337.9,260.3z"/>
				<path id="XMLID_459_" class="st10" d="M366.3,243.9l-2.5-17.7c-0.2-1.1-1.1-1.5-2-1l-18.4,10.6c-1,0.6-1.6,1.9-1.5,3l2.5,17.7
					c0.2,1.1,1.1,1.5,2,1l18.4-10.6C365.8,246.4,366.4,245,366.3,243.9z"/>
			</g>
			<g id="XMLID_450_">
				<path id="XMLID_457_" class="st2" d="M190.7,307.7l-2.5-17.7c-0.2-1.1-1.1-1.5-2-1l-18.4,10.6c-1,0.6-1.6,1.9-1.4,3l2.5,17.7
					c0.2,1.1,1.1,1.5,2,1l18.4-10.6C190.2,310.1,190.9,308.8,190.7,307.7z"/>
				<path id="XMLID_456_" class="st10" d="M219.1,291.3l-2.5-17.7c-0.2-1.1-1.1-1.5-2-1l-18.4,10.6c-1,0.6-1.6,1.9-1.4,3l2.5,17.7
					c0.2,1.1,1.1,1.5,2,1l18.4-10.6C218.7,293.7,219.3,292.4,219.1,291.3z"/>
				<path id="XMLID_455_" class="st10" d="M247.6,274.9l-2.5-17.7c-0.2-1.1-1.1-1.5-2-1l-18.4,10.6c-1,0.6-1.6,1.9-1.4,3l2.5,17.7
					c0.2,1.1,1.1,1.5,2,1l18.4-10.6C247.1,277.3,247.7,276,247.6,274.9z"/>
				<path id="XMLID_454_" class="st10" d="M276,258.5l-2.5-17.7c-0.2-1.1-1.1-1.5-2-1l-18.4,10.6c-1,0.6-1.6,1.9-1.4,3l2.5,17.7
					c0.2,1.1,1.1,1.5,2,1l18.4-10.6C275.5,260.9,276.2,259.6,276,258.5z"/>
				<path id="XMLID_453_" class="st10" d="M304.5,242.1l-2.5-17.7c-0.2-1.1-1.1-1.5-2-1L281.5,234c-1,0.6-1.6,1.9-1.5,3l2.5,17.7
					c0.2,1.1,1.1,1.5,2,1l18.4-10.6C304,244.5,304.6,243.2,304.5,242.1z"/>
				<path id="XMLID_452_" class="st10" d="M332.9,225.7l-2.5-17.7c-0.2-1.1-1.1-1.5-2-1L310,217.6c-1,0.6-1.6,1.9-1.5,3l2.5,17.7
					c0.2,1.1,1.1,1.5,2,1l18.4-10.6C332.4,228.1,333.1,226.8,332.9,225.7z"/>
				<path id="XMLID_451_" class="st10" d="M361.3,209.3l-2.5-17.7c-0.2-1.1-1.1-1.5-2-1l-18.4,10.6c-1,0.6-1.6,1.9-1.5,3l2.5,17.7
					c0.2,1.1,1.1,1.5,2,1l18.4-10.6C360.9,211.7,361.5,210.4,361.3,209.3z"/>
			</g>
			<g id="XMLID_432_">
				<path id="XMLID_449_" class="st2" d="M185.8,273l-2.5-17.7c-0.2-1.1-1.1-1.5-2-1L162.8,265c-1,0.6-1.6,1.9-1.4,3l2.5,17.7
					c0.2,1.1,1.1,1.5,2,1l18.4-10.6C185.3,275.5,185.9,274.1,185.8,273z"/>
				<path id="XMLID_448_" class="st10" d="M214.2,256.6l-2.5-17.7c-0.2-1.1-1.1-1.5-2-1l-18.4,10.6c-1,0.6-1.6,1.9-1.4,3l2.5,17.7
					c0.2,1.1,1.1,1.5,2,1l18.4-10.6C213.7,259.1,214.4,257.7,214.2,256.6z"/>
				<path id="XMLID_445_" class="st10" d="M242.6,240.2l-2.5-17.7c-0.2-1.1-1.1-1.5-2-1l-18.4,10.6c-1,0.6-1.6,1.9-1.4,3l2.5,17.7
					c0.2,1.1,1.1,1.5,2,1l18.4-10.6C242.2,242.7,242.8,241.3,242.6,240.2z"/>
				<path id="XMLID_442_" class="st10" d="M271.1,223.8l-2.5-17.7c-0.2-1.1-1.1-1.5-2-1l-18.4,10.6c-1,0.6-1.6,1.9-1.4,3l2.5,17.7
					c0.2,1.1,1.1,1.5,2,1l18.4-10.6C270.6,226.3,271.2,224.9,271.1,223.8z"/>
				<path id="XMLID_439_" class="st10" d="M299.5,207.4l-2.5-17.7c-0.2-1.1-1.1-1.5-2-1l-18.4,10.6c-1,0.6-1.6,1.9-1.5,3l2.5,17.7
					c0.2,1.1,1.1,1.5,2,1l18.4-10.6C299,209.9,299.7,208.5,299.5,207.4z"/>
				<path id="XMLID_436_" class="st10" d="M328,191l-2.5-17.7c-0.2-1.1-1.1-1.5-2-1L305,183c-1,0.6-1.6,1.9-1.5,3l2.5,17.7
					c0.2,1.1,1.1,1.5,2,1l18.4-10.6C327.5,193.5,328.1,192.1,328,191z"/>
				<path id="XMLID_435_" class="st10" d="M356.4,174.6l-2.5-17.7c-0.2-1.1-1.1-1.5-2-1l-18.4,10.6c-1,0.6-1.6,1.9-1.5,3l2.5,17.7
					c0.2,1.1,1.1,1.5,2,1l18.4-10.6C355.9,177.1,356.6,175.7,356.4,174.6z"/>
			</g>
			<g id="XMLID_417_">
				<path id="XMLID_428_" class="st2" d="M180.8,238.4l-2.5-17.7c-0.2-1.1-1.1-1.5-2-1l-18.4,10.6c-1,0.6-1.6,1.9-1.4,3L159,251
					c0.2,1.1,1.1,1.5,2,1l18.4-10.6C180.3,240.8,181,239.5,180.8,238.4z"/>
				<path id="XMLID_427_" class="st10" d="M209.3,222l-2.5-17.7c-0.2-1.1-1.1-1.5-2-1l-18.4,10.6c-1,0.6-1.6,1.9-1.4,3l2.5,17.7
					c0.2,1.1,1.1,1.5,2,1l18.4-10.6C208.8,224.4,209.4,223.1,209.3,222z"/>
				<path id="XMLID_424_" class="st10" d="M237.7,205.6l-2.5-17.7c-0.2-1.1-1.1-1.5-2-1l-18.4,10.6c-1,0.6-1.6,1.9-1.4,3l2.5,17.7
					c0.2,1.1,1.1,1.5,2,1l18.4-10.6C237.2,208,237.9,206.7,237.7,205.6z"/>
				<path id="XMLID_421_" class="st10" d="M266.1,189.2l-2.5-17.7c-0.2-1.1-1.1-1.5-2-1l-18.4,10.6c-1,0.6-1.6,1.9-1.4,3l2.5,17.7
					c0.2,1.1,1.1,1.5,2,1l18.4-10.6C265.6,191.6,266.3,190.3,266.1,189.2z"/>
				<path id="XMLID_420_" class="st10" d="M294.6,172.8l-2.5-17.7c-0.2-1.1-1.1-1.5-2-1l-18.4,10.6c-1,0.6-1.6,1.9-1.5,3l2.5,17.7
					c0.2,1.1,1.1,1.5,2,1l18.4-10.6C294.1,175.2,294.7,173.9,294.6,172.8z"/>
				<path id="XMLID_419_" class="st10" d="M323,156.4l-2.5-17.7c-0.2-1.1-1.1-1.5-2-1l-18.4,10.6c-1,0.6-1.6,1.9-1.5,3l2.5,17.7
					c0.2,1.1,1.1,1.5,2,1l18.4-10.6C322.5,158.8,323.2,157.5,323,156.4z"/>
				<path id="XMLID_418_" class="st10" d="M351.5,140l-2.5-17.7c-0.2-1.1-1.1-1.5-2-1l-18.4,10.6c-1,0.6-1.6,1.9-1.5,3l2.5,17.7
					c0.2,1.1,1.1,1.5,2,1L350,143C351,142.4,351.6,141.1,351.5,140z"/>
			</g>
		</g>
		<g id="XMLID_25_">
			<path id="XMLID_235_" class="st6" d="M176.4,207.1l-0.6-4.5c-0.2-1.1-1.1-1.5-2-1l-18.4,10.6c-1,0.6-1.6,1.9-1.4,3l0.6,4.5
				c0.2,1.1,1.1,1.5,2,1l18.4-10.6C176,209.5,176.6,208.2,176.4,207.1z"/>
			<path id="XMLID_222_" class="st6" d="M204.9,190.7l-0.6-4.5c-0.2-1.1-1.1-1.5-2-1l-18.4,10.6c-1,0.6-1.6,1.9-1.4,3l0.6,4.5
				c0.2,1.1,1.1,1.5,2,1l18.4-10.6C204.4,193.1,205,191.8,204.9,190.7z"/>
			<path id="XMLID_212_" class="st6" d="M233.3,174.3l-0.6-4.5c-0.2-1.1-1.1-1.5-2-1l-18.4,10.6c-1,0.6-1.6,1.9-1.4,3l0.6,4.5
				c0.2,1.1,1.1,1.5,2,1l18.4-10.6C232.8,176.7,233.5,175.4,233.3,174.3z"/>
			<path id="XMLID_33_" class="st6" d="M261.8,157.9l-0.6-4.5c-0.2-1.1-1.1-1.5-2-1L240.7,163c-1,0.6-1.6,1.9-1.4,3l0.6,4.5
				c0.2,1.1,1.1,1.5,2,1l18.4-10.6C261.3,160.3,261.9,159,261.8,157.9z"/>
			<path id="XMLID_32_" class="st6" d="M290.2,141.5l-0.6-4.5c-0.2-1.1-1.1-1.5-2-1l-18.4,10.6c-1,0.6-1.6,1.9-1.5,3l0.6,4.5
				c0.2,1.1,1.1,1.5,2,1l18.4-10.6C289.7,143.9,290.4,142.6,290.2,141.5z"/>
			<path id="XMLID_28_" class="st6" d="M318.6,125.1l-0.6-4.5c-0.2-1.1-1.1-1.5-2-1l-18.4,10.6c-1,0.6-1.6,1.9-1.5,3l0.6,4.5
				c0.2,1.1,1.1,1.5,2,1l18.4-10.6C318.2,127.5,318.8,126.2,318.6,125.1z"/>
			<path id="XMLID_251_" class="st6" d="M347.1,108.7l-0.6-4.5c-0.2-1.1-1.1-1.5-2-1L326,113.8c-1,0.6-1.6,1.9-1.5,3l0.6,4.5
				c0.2,1.1,1.1,1.5,2,1l18.4-10.6C346.6,111.1,347.2,109.8,347.1,108.7z"/>
		</g>
		<path id="XMLID_257_" class="st8" d="M155,180.4c-0.3-2.4,1.2-5.4,3.4-6.7c2.2-1.3,4.3-0.4,4.7,2c0.3,2.4-1.2,5.4-3.4,6.7
			C157.4,183.7,155.3,182.8,155,180.4z"/>
		<path id="XMLID_258_" class="st8" d="M183.5,164c-0.3-2.4,1.2-5.4,3.4-6.7c2.2-1.3,4.3-0.4,4.7,2s-1.2,5.4-3.4,6.7
			C185.9,167.2,183.8,166.3,183.5,164z"/>
		<path id="XMLID_259_" class="st8" d="M211.9,147.5c-0.3-2.4,1.2-5.4,3.4-6.7c2.2-1.3,4.3-0.4,4.7,2c0.3,2.4-1.2,5.4-3.4,6.7
			C214.3,150.8,212.2,149.9,211.9,147.5z"/>
		<path id="XMLID_265_" class="st8" d="M268.7,114.7c-0.3-2.4,1.2-5.4,3.4-6.7c2.2-1.3,4.3-0.4,4.7,2s-1.2,5.4-3.4,6.7
			S269.1,117.1,268.7,114.7z"/>
		<path id="XMLID_260_" class="st8" d="M297.2,98.3c-0.3-2.4,1.2-5.4,3.4-6.7c2.2-1.3,4.3-0.4,4.7,2c0.3,2.4-1.2,5.4-3.4,6.7
			C299.6,101.6,297.5,100.7,297.2,98.3z"/>
		<path id="XMLID_266_" class="st8" d="M325.6,81.9c-0.3-2.4,1.2-5.4,3.4-6.7c2.2-1.3,4.3-0.4,4.7,2c0.3,2.4-1.2,5.4-3.4,6.7
			S326,84.3,325.6,81.9z"/>
		<g id="XMLID_267_">
			<path id="XMLID_268_" class="st11" d="M152.1,153.4c-3-1.8-5.9-2-8.2-0.7c-2.2,1.3-3.5,3.9-3.5,7.4c0,1.6,0.3,3.2,0.7,4.9l1.8-1
				c-0.3-1.3-0.5-2.6-0.5-3.8c0-2.8,0.9-4.8,2.5-5.7c0.6-0.4,1.4-0.5,2.1-0.5c1.2,0,2.6,0.4,4,1.3c5.3,3.1,9.6,10.6,9.6,16.7
				c0,0.5,0,0.9-0.1,1.3c-0.2,2.1-1.1,3.6-2.4,4.4c-0.9,0.5-1.9,0.6-3,0.5c-0.2,0.7-0.3,1.3-0.3,2c0.4,0.1,0.8,0.1,1.1,0.1
				c1.1,0,2.2-0.3,3.1-0.8c1.7-1,2.8-2.8,3.3-5.1c0.1-0.7,0.2-1.5,0.2-2.3C162.7,165,157.9,156.8,152.1,153.4z"/>
		</g>
		<g id="XMLID_269_">
			<path id="XMLID_270_" class="st11" d="M180.5,136.9c-3-1.8-5.9-2-8.2-0.7c-2.2,1.3-3.5,3.9-3.5,7.4c0,1.6,0.3,3.2,0.7,4.9l1.8-1
				c-0.3-1.3-0.5-2.6-0.5-3.8c0-2.8,0.9-4.8,2.5-5.7c0.6-0.4,1.4-0.5,2.1-0.5c1.2,0,2.6,0.4,4,1.3c5.3,3.1,9.6,10.6,9.6,16.7
				c0,0.5,0,0.9-0.1,1.3c-0.2,2.1-1.1,3.6-2.4,4.4c-0.9,0.5-1.9,0.6-3,0.5c-0.2,0.7-0.3,1.3-0.3,2c0.4,0.1,0.8,0.1,1.1,0.1
				c1.1,0,2.2-0.3,3.1-0.8c1.7-1,2.8-2.8,3.3-5.1c0.1-0.7,0.2-1.5,0.2-2.3C191.2,148.6,186.4,140.3,180.5,136.9z"/>
		</g>
		<g id="XMLID_272_">
			<path id="XMLID_273_" class="st11" d="M208.9,120.5c-3-1.8-5.9-2-8.2-0.7c-2.2,1.3-3.5,3.9-3.5,7.4c0,1.6,0.3,3.2,0.7,4.8l1.8-1
				c-0.3-1.3-0.5-2.6-0.5-3.8c0-2.8,0.9-4.8,2.5-5.7c0.6-0.4,1.4-0.5,2.1-0.5c1.2,0,2.6,0.4,4,1.3c5.3,3.1,9.6,10.6,9.6,16.7
				c0,0.5,0,0.9-0.1,1.3c-0.2,2.1-1.1,3.6-2.4,4.4c-0.9,0.5-1.9,0.6-3,0.5c-0.2,0.7-0.3,1.3-0.3,2c0.4,0.1,0.8,0.1,1.1,0.1
				c1.1,0,2.2-0.3,3.1-0.8c1.7-1,2.8-2.8,3.3-5.1c0.1-0.7,0.2-1.5,0.2-2.3C219.6,132.2,214.8,123.9,208.9,120.5z"/>
		</g>
		<g id="XMLID_395_">
			<path id="XMLID_396_" class="st11" d="M265.8,87.7c-3-1.8-5.9-2-8.2-0.7c-2.2,1.3-3.5,3.9-3.5,7.4c0,1.6,0.3,3.2,0.7,4.8l1.8-1
				c-0.3-1.3-0.5-2.6-0.5-3.8c0-2.8,0.9-4.8,2.5-5.7c0.6-0.4,1.4-0.5,2.1-0.5c1.2,0,2.6,0.4,4,1.3c5.3,3.1,9.6,10.6,9.6,16.7
				c0,0.5,0,0.9-0.1,1.3c-0.2,2.1-1.1,3.6-2.4,4.4c-0.9,0.5-1.9,0.7-3,0.5c-0.2,0.7-0.3,1.3-0.3,2c0.4,0.1,0.8,0.1,1.1,0.1
				c1.1,0,2.2-0.3,3.1-0.8c1.7-1,2.8-2.8,3.3-5.1c0.1-0.7,0.2-1.5,0.2-2.3C276.5,99.4,271.7,91.1,265.8,87.7z"/>
		</g>
		<g id="XMLID_278_">
			<path id="XMLID_393_" class="st11" d="M294.3,71.3c-3-1.8-5.9-2-8.2-0.7c-2.2,1.3-3.5,3.9-3.5,7.4c0,1.6,0.3,3.2,0.7,4.8l1.8-1
				c-0.3-1.3-0.5-2.6-0.5-3.8c0-2.8,0.9-4.8,2.5-5.7c0.6-0.4,1.4-0.5,2.1-0.5c1.2,0,2.6,0.4,4,1.3c5.3,3.1,9.6,10.6,9.6,16.7
				c0,0.5,0,0.9-0.1,1.3c-0.2,2.1-1.1,3.6-2.4,4.4c-0.9,0.5-1.9,0.7-3,0.5c-0.2,0.7-0.3,1.3-0.3,2c0.4,0.1,0.8,0.1,1.1,0.1
				c1.1,0,2.2-0.3,3.1-0.8c1.7-1,2.8-2.8,3.3-5.1c0.1-0.7,0.2-1.5,0.2-2.3C304.9,83,300.1,74.7,294.3,71.3z"/>
		</g>
		<g id="XMLID_275_">
			<path id="XMLID_277_" class="st11" d="M322.7,54.9c-3-1.8-5.9-2-8.2-0.7c-2.2,1.3-3.5,3.9-3.5,7.4c0,1.6,0.3,3.2,0.7,4.8l1.8-1
				c-0.3-1.3-0.5-2.6-0.5-3.8c0-2.8,0.9-4.8,2.5-5.7c0.6-0.4,1.4-0.5,2.1-0.5c1.2,0,2.6,0.4,4,1.3c5.3,3.1,9.6,10.6,9.6,16.7
				c0,0.5,0,0.9-0.1,1.3c-0.2,2.1-1.1,3.6-2.4,4.4c-0.9,0.5-1.9,0.7-3,0.5c-0.2,0.7-0.3,1.3-0.3,2c0.4,0.1,0.8,0.1,1.1,0.1
				c1.1,0,2.2-0.3,3.1-0.8c1.7-1,2.8-2.8,3.3-5.1c0.1-0.7,0.2-1.5,0.2-2.3C333.3,66.6,328.5,58.3,322.7,54.9z"/>
		</g>
	</g>
</g>
<g id="Device">
	<g id="Clock_2_">
		<g id="XMLID_58_">
			<path id="XMLID_59_" class="st12" d="M352.2,315l-6.7,11.7c-0.9,1.5-0.4,3.5,1.1,4.4c1.5,0.9,3.5,0.4,4.4-1.1l6.8-11.7
				c0.7-1.1,0-2.8-1.6-3.6C354.6,313.7,352.9,313.9,352.2,315z"/>
		</g>
		<g id="XMLID_56_">
			<path id="XMLID_57_" class="st12" d="M405.7,294.4l11.7,6.7c1.5,0.9,3.5,0.4,4.4-1.1c0.9-1.5,0.4-3.5-1.1-4.4l-11.7-6.8
				c-1.1-0.7-2.8,0-3.6,1.6C404.4,292,404.6,293.8,405.7,294.4z"/>
		</g>
		<path id="XMLID_55_" class="st2" d="M418.6,241.8L418.6,241.8L418.6,241.8C418.6,241.8,418.6,241.8,418.6,241.8l-28.5-16.4
			c0,0,0,0,0,0l-0.1,0l0,0c-6.2-3.6-14.8-3-24.3,2.5c-19.1,11-34.5,37.8-34.5,59.8c0,11,3.8,18.7,10.1,22.3l0,0l0.1,0c0,0,0,0,0,0
			l28.4,16.4c0,0,0,0,0,0l0.1,0l0,0c6.2,3.6,14.8,3,24.3-2.5c19.1-11,34.5-37.8,34.5-59.8C428.7,253.2,424.8,245.5,418.6,241.8z"/>
		<path id="XMLID_54_" class="st3" d="M369.3,326.1l-28-16.1c0,0,0,0,0,0l-0.1,0c-6.2-3.6-10-11.4-10-22.3c0-9.8,3.1-20.6,8.2-30.5
			l28.4,16.4c-5.1,9.9-8.2,20.6-8.2,30.5C359.6,314.8,363.3,322.4,369.3,326.1z"/>
		
			<ellipse id="XMLID_53_" transform="matrix(0.5 -0.866 0.866 0.5 -48.9662 483.3882)" class="st9" cx="394.1" cy="284.1" rx="48.8" ry="28.2"/>
		<path id="XMLID_52_" class="st7" d="M378.7,321.7c-10.9,0-12.1-12.3-12.1-17.6c0-19.4,14.2-44,31-53.7c4.3-2.5,8.4-3.8,11.9-3.8
			c10.9,0,12.1,12.3,12.1,17.6c0,19.4-14.2,44-31,53.7C386.4,320.4,382.3,321.7,378.7,321.7L378.7,321.7z"/>
		<g id="XMLID_46_">
			<g id="XMLID_50_">
				<path id="XMLID_51_" class="st2" d="M386.5,306.6c-0.1,0-0.1,0-0.2,0c-0.3-0.1-0.4-0.4-0.3-0.6l7.7-21.9
					c0.1-0.3,0.4-0.4,0.6-0.3c0.3,0.1,0.4,0.4,0.3,0.6l-7.7,21.9C386.9,306.5,386.7,306.6,386.5,306.6z"/>
			</g>
			<g id="XMLID_48_">
				<path id="XMLID_49_" class="st13" d="M405.6,290.7c-0.2,0-0.4,0-0.6-0.1l-12.4-5.4v-22.4c0-0.8,0.7-1.5,1.5-1.5s1.5,0.7,1.5,1.5
					v20.5l10.6,4.6c0.8,0.3,1.1,1.2,0.8,2C406.8,290.4,406.2,290.7,405.6,290.7z"/>
			</g>
			<path id="XMLID_47_" class="st2" d="M394.2,279.4c2.2-1.3,4.1-0.2,4.1,2.3c0,2.6-1.8,5.7-4.1,7s-4.1,0.2-4.1-2.3
				C390.1,283.8,391.9,280.7,394.2,279.4z"/>
		</g>
		<g id="XMLID_42_">
			<path id="XMLID_45_" class="st12" d="M361.1,263.3c-4.9,8.5-14.1,12.3-21.1,8.3c-8.5-4.9-11.4-15.7-6.5-24.2
				c4.9-8.5,15.8-11.4,24.2-6.5C364.7,244.9,366,254.8,361.1,263.3z"/>
			<path id="XMLID_44_" class="st13" d="M340.1,271.6c6.9,4,16.2,0.2,21.1-8.3c1.1-2,1.9-4,2.4-6.1c-0.3,0.4-8.4,10.8-18.6,7.8
				c-10.3-3-12.3-10.9-11.4-17.7C328.7,255.9,331.6,266.7,340.1,271.6z"/>
			<path id="XMLID_43_" class="st2" d="M337.2,245.6l-5.3-3c-1.5-0.9-3.5-0.4-4.4,1.1c-0.9,1.5-0.4,3.5,1.1,4.4l5.3,3.1
				c1.1,0.7,2.8,0,3.6-1.6C338.5,248.1,338.3,246.3,337.2,245.6z"/>
		</g>
		<g id="XMLID_38_">
			<path id="XMLID_41_" class="st2" d="M415.7,220.3l3-5.3c0.9-1.5,0.4-3.5-1.1-4.4c-1.5-0.9-3.5-0.4-4.4,1.1l-3.1,5.3
				c-0.7,1.1,0,2.8,1.6,3.6C413.3,221.6,415,221.4,415.7,220.3z"/>
			<path id="XMLID_40_" class="st12" d="M390.3,222.4c4.9-8.5,15.7-11.4,24.2-6.5c8.5,4.9,11.4,15.7,6.5,24.2L390.3,222.4z"/>
			<path id="XMLID_39_" class="st13" d="M417.1,217.8c1,2.1,3.7,10.9,0,13.1c-3.7,2.2-20.9-5.1-20.9-5.1l24.8,14.3
				C425.3,232.7,423.5,223.3,417.1,217.8z"/>
		</g>
	</g>
</g>
<g id="Character_1_">
	<g id="Character">
		<path id="XMLID_600_" class="st14" d="M304.9,268.5c-17.7-23.8-23.5-26.4-26.8-27.3l5.8,16l12.1,15.6"/>
		<path id="XMLID_609_" class="st2" d="M276.3,241c0,0,3.8-1.1,9.2,4.2s12,13.1,12,13.1s-1.8,6.3-7.3,8.3l-8-8.3L276.3,241z"/>
		<path id="XMLID_610_" class="st3" d="M276.3,241c0,0,3.8-1.1,9.2,4.2s12,13.1,12,13.1s-1.8,6.3-7.3,8.3l-8-8.3L276.3,241z"/>
		
			<ellipse id="XMLID_526_" transform="matrix(0.9732 -0.2298 0.2298 0.9732 -42.6522 69.5822)" class="st15" cx="277.4" cy="217.9" rx="10.2" ry="10.2"/>
		<g id="XMLID_492_">
			<g id="XMLID_493_">
				<g id="XMLID_494_">
					<rect id="XMLID_515_" x="253.1" y="389.9" class="st14" width="7.2" height="12.3"/>
					<polygon id="XMLID_514_" class="st14" points="276.4,393.2 283.6,393.5 283.9,380.5 276.8,380.3 					"/>
					<path id="XMLID_513_" class="st13" d="M253.5,292.7c0,6.8,0,49.5,0,49.5c-0.2,2-1.6,5.4-2,13.7c-0.5,10.3,1.1,38.5,1.1,38.5
						s3.4,3.3,8.1,0c0,0,6.4-40.3,7.6-50.5c1.1-8.9,3-33,3-33l4.3,36.3c0,0-1.2,6.7-1.4,11.4c-0.3,4.7,2.1,29.8,2.1,29.8
						s3.6,2.5,7.8,0.3c0,0,4.9-37.7,5.6-41.9c0.7-4.3-2.7-54.2-2.7-54.2L253.5,292.7L253.5,292.7z"/>
					<path id="XMLID_512_" class="st2" d="M260.4,243.3c-1,0.2-2.1,0.3-3,0.7c-2,0.8-2.9,3.2-3.3,5.3c-0.3,1.5-0.6,3.4-0.6,5.4v14
						v24c5,5.5,22.5,8,33.5,0c0,0-0.2-33.6-1-39.1c-1.4-9.6-6-13-10.6-12.6l-11,1.6L260.4,243.3z"/>
					<g id="XMLID_497_">
						<g id="XMLID_505_">
							<path id="XMLID_511_" class="st15" d="M259.8,225.2c0,0,1.6,7.7,2.3,9c0.7,1.3,2,1.6,2,1.6l-0.1-5.4L259.8,225.2z"/>
							<path id="XMLID_510_" class="st15" d="M261.9,214.1c0,0-1.8-0.3-3.2,1.1c-1.4,1.4-0.6,5.7,1.1,10l3.1,0.4L261.9,214.1z"/>
							<path id="XMLID_509_" class="st14" d="M263.9,225.5c-0.6,0.4-1.5-0.8-2.3-1.6c-0.8-0.8-3.3-1.9-4.5,0.7
								c-1.3,2.7,1.1,6.2,3.1,6.8c3.4,1.1,3.9-1.1,3.9-1.1l0.3,12.3c0,0,2.2,5.4,8.2,6.3c6,0.8,4.8-4.1,2.8-6.6l0-3.7
								c0,0,3.1,0.5,4.6,0.2c2.5-0.4,4.1-2.4,4.8-5.1c1.2-4.3,1.7-7.9,0.6-16.4c-1.1-9.4-12-9.5-17.9-5.8
								C261.6,215.3,263.9,225.5,263.9,225.5z"/>
							<path id="XMLID_508_" class="st15" d="M263.9,226.6c-0.3,0-1.5-2-2.3-2.7c-1.1-1,0.3-9.8,0.3-9.8s-1-2.2,1-4.5
								c1.5-1.6,3.9-1.8,8.1-2.5c2.2-0.3,5.5-1,7.7-1.4c2.6-0.5,4.8-1,6.6,0.6c1.4,1.3,2.1,3.5,1.3,5.2c-0.2,0.4-0.4,0.8-0.7,1.1
								c-0.5,0.6-0.6,1.4-1.4,1.6c0,0-1.6,1.4-5.6,1.9c-4,0.5-10.2-0.1-11-0.2c-1.2-0.2-1.5,0.2-2.1,3.3
								C265.4,222,264.9,226.5,263.9,226.6z"/>
							<path id="XMLID_507_" class="st15" d="M261.9,214.8l-3.8-2c0.5-1.1,1.8-1.5,2.8-0.9C262,212.4,262.5,213.7,261.9,214.8z"/>
							<path id="XMLID_506_" class="st16" d="M275.4,238.6c0,0-5.6-1.1-7.5-2.2c-1.3-0.7-2.4-1.9-2.7-2.7c0,0,0.4,1.7,1.5,3.1
								c1.4,1.8,8.7,3.2,8.7,3.2L275.4,238.6z"/>
						</g>
						<g id="XMLID_498_">
							<path id="XMLID_504_" class="st15" d="M274.4,225.1c0,0.6-0.5,1.2-1.1,1.2s-1.1-0.5-1.1-1.2s0.5-1.2,1.1-1.2
								C273.9,224,274.4,224.5,274.4,225.1z"/>
							<path id="XMLID_503_" class="st15" d="M273.2,220.9l-2.4,1.3c-0.4-0.7-0.1-1.5,0.6-1.9C272,220,272.8,220.2,273.2,220.9z"/>
							<path id="XMLID_502_" class="st16" d="M274.9,231.8l2.6,1c-0.3,0.7-1,1.1-1.7,0.8C275,233.4,274.6,232.6,274.9,231.8z"/>
							<path id="XMLID_501_" class="st15" d="M284.3,221.9l-2.2-1.7c0.4-0.6,1.3-0.8,1.9-0.3C284.7,220.4,284.8,221.2,284.3,221.9z"
								/>
							<path id="XMLID_500_" class="st15" d="M283.7,224.8c0,0.6-0.5,1.2-1.1,1.2c-0.6,0-1.1-0.5-1.1-1.2s0.5-1.2,1.1-1.2
								C283.2,223.7,283.7,224.2,283.7,224.8z"/>
							<polygon id="XMLID_499_" class="st16" points="277.6,222.7 278,229.5 281.5,228.3 							"/>
						</g>
					</g>
					<path id="XMLID_496_" class="st15" d="M260.2,398.6v-1c0.7,0.3,2.3,6.4,5.1,9c2.3,2.1,5.3,4.4,6.1,6.7c0.8,2.4-4.3,3.7-6.4,3.3
						c-2.5-0.4-6.7-2.2-7.8-3.8c-1.1-1.6-1.6-4-2.4-5.1c-0.9-1.2-2.9-2.5-3.3-3.8c-0.3-0.7,0-2.4,0.4-3.8c0.3-1.3,0.7-2.7,1.1-2.5
						c0,0.2,0,0.8,0,0.8c0.5,0.6,2,1.1,3.6,1.2C257.7,399.6,260.2,399.4,260.2,398.6z"/>
					<path id="XMLID_495_" class="st15" d="M283.6,391.3c0.4,0,0.7,0.5,1.5,1.4c1,1.1,2.6,2.2,4.2,3c2.7,1.3,7.9,3.4,10.2,4.5
						c1.5,0.7,1.4,2.4-0.1,3.5c-1.5,1-5.2,1.7-9.6,0.8c-2.4-0.5-5.5-2.8-7.5-2.6c-2,0.1-5.7,0.1-7.2-0.9c-1.5-1-0.9-3.2-0.5-5
						c0.5-2,1.1-5.1,1.8-5l0,0.6c0.9,1.3,5.2,1.8,7.1,0.9L283.6,391.3z"/>
				</g>
			</g>
		</g>
		<path id="XMLID_491_" class="st15" d="M271.4,311c0,0,5.7-1.6,10-5.7c0,0-1.9,3.6-7.6,7l0.1,19.5L271.4,311z"/>
		<g id="XMLID_554_">
			<path id="XMLID_555_" class="st14" d="M257.8,310.7c-1.2-1-1.9-2.3-3.7-3.6c-1.6-1.1-2.2-1.6-3.1-3.2c-1-1.7-2-7.3-2.3-12.6
				c-0.4-6.3,1.3-14.2,2.5-17.5c2.4-6.7,7.4-15.7,9-19.5c1.6-3.8,0.8-5.7-0.7-7.6c-1.7-2.3-4.9-2.3-7.9,2.9
				c-3,5.1-7.4,14.8-9.5,22.6c-1.1,3.8-2.2,10-1.7,18.1c0.3,5.6,1.6,9.9,3.1,15.3c0.4,1.5,0.4,2.7,0.9,5.6c0.2,1.2,0.4,2.5,0.9,3.5
				c0.7,1.3,1.5,2.6,2.6,3.7c1.3,1.4,3,2.5,4.8,3c1,0.3,2.1,0.4,3.1,0.2c1-0.2,2-0.7,2.7-1.6c0.1-0.2,0.3-0.4,0.3-0.6
				c0.1-0.4-0.2-0.7-0.4-1c-1.3-1.7-2.9-3.4-4-5.2c-0.9-1.5-1.4-2.8-1-2.7c0.4,0.1,0.8,1,2.2,1.8c1.3,0.8,3,0.8,3.4,0.1
				C259.1,311.6,259,311.7,257.8,310.7z"/>
		</g>
		<path id="XMLID_569_" class="st2" d="M258.3,243.7c-2.9,0.2-5.5,0.8-8.3,6.5s-7.3,16.3-7.3,16.3s3.1,6.3,10.9,6.3
			c0,0,6.6-13.7,7.6-17.4C262.3,251.9,263,246,258.3,243.7z"/>
		<path id="XMLID_570_" class="st3" d="M258.3,243.7c-2.9,0.2-5.5,0.8-8.3,6.5s-7.3,16.3-7.3,16.3s3.1,6.3,10.9,6.3
			c0,0,6.6-13.7,7.6-17.4C262.3,251.9,263,246,258.3,243.7z"/>
		<g id="XMLID_584_">
			<path id="XMLID_585_" class="st14" d="M296,272.8c-0.7,1.9-6.9,7.7-11.5,9.5c-0.8,0.3-2.5,0.5-3.4,0.2c-1-0.4-2.3-0.8-3.4-0.7
				c-1.3,0.1-2.7,0.4-4,0.5c-0.3,0-0.6,0.1-0.8,0.2c-0.8,0.5-0.4,1.1,0.3,1.4c1,0.4,2.1,0.7,3.2,0.9c0,0.1,0,0.2,0,0.3
				c-2.7,1.1-5.7,1.4-8.7,1.7c-0.5,0.1-1.1,0.1-1.5,0.5c-0.4,0.4-0.4,0.9-0.3,1.4s0.4,0.9,0.7,1.3c1.3,1.7,3,3.3,5.2,3.6
				c2.1,0.3,4.4-0.2,6.4-0.8c1-0.3,2-0.6,2.9-0.9c2.2-0.8,5.6-2.3,8.3-3.7c6.9-3.7,12.6-8,15.7-11.1c2.9-2.8,2.2-5.5-0.2-8.8"/>
		</g>
		<path id="XMLID_599_" class="st13" d="M283.9,282.5c0,0,1-0.4,2.1,1.5s1.9,5.2,0.4,5.8c0,0,1.4,0.2,2.5-1.3c0,0,1.1-4.2-2.5-7.1
			C286.4,281.5,284.6,281.5,283.9,282.5z"/>
		<path id="XMLID_613_" class="st2" d="M289.1,283.2c0.6,1,0.2,2.3-0.8,2.9s-2.3,0.2-2.9-0.8s-0.2-2.3,0.8-2.9
			C287.3,281.9,288.6,282.2,289.1,283.2z"/>
		<path id="XMLID_614_" class="st7" d="M288.7,283.5c0.4,0.7,0.2,1.7-0.6,2.1s-1.7,0.2-2.1-0.6c-0.4-0.7-0.2-1.7,0.6-2.1
			C287.3,282.5,288.2,282.7,288.7,283.5z"/>
	</g>
</g>
</svg>
